<svg xmlns="http://www.w3.org/2000/svg" fill="none" viewBox="0 0 24 24">
  <g fill="#89898b" stroke-linecap="round" stroke-linejoin="round">
    <path d="M4 2.25a.75.75 0 0 0 0 1.5h1.25v12.6a2.74 2.74 0 0 0 .75 5.4 2.75 2.75 0 0 0 2.45-4H12a.75.75 0 0 0 0-1.5H6.75v-2.5H14a.75.75 0 0 0 0-1.5H6.75V5.8l12.4.9-.6 4.2a.75.75 0 1 0 1.48.22l.71-5.01a.75.75 0 0 0-.69-.86L6.75 4.3V3A.75.75 0 0 0 6 2.25zm2 15.5a1.25 1.25 0 1 1 0 2.5 1.25 1.25 0 0 1 0-2.5z"/>
    <path d="M19 14.25a3.75 3.75 0 0 0-2.65 6.4c.45.45 1.16 1.08 2.17 1.92a.75.75 0 0 0 .96 0 40 40 0 0 0 2.17-1.92 3.75 3.75 0 0 0-2.65-6.4zm0 1.5a2.25 2.25 0 0 1 1.59 3.84c-.25.25-.91.82-1.59 1.4-.65-.55-1.3-1.1-1.59-1.4A2.25 2.25 0 0 1 19 15.75z" color="#000" />
    <path d="M19 17.25a.75.75 0 0 0-.75.75v.01a.75.75 0 0 0 .75.75.75.75 0 0 0 .75-.75V18a.75.75 0 0 0-.75-.75z" color="#000" />
  </g>
</svg>