<svg xmlns="http://www.w3.org/2000/svg" xml:space="preserve" viewBox="0 0 24 24">
  <circle cx="12" cy="12" r="12"/>
  <g fill="#fff" stroke-linecap="square" stroke-miterlimit="0" stroke-width="2.5">
    <path d="M15.678 7.495a.827.827 0 1 0 0 1.654.827.827 0 0 0 0-1.654zM12 8.462a3.538 3.538 0 1 0 0 7.076 3.538 3.538 0 0 0 0-7.076zm0 1.241a2.297 2.297 0 1 1 0 4.594 2.297 2.297 0 0 1 0-4.594z"/>
    <path d="M12 5.11c-1.871 0-2.106.007-2.84.041-.734.033-1.235.15-1.674.32a3.375 3.375 0 0 0-1.22.795 3.376 3.376 0 0 0-.795 1.22c-.17.439-.287.94-.32 1.673-.034.735-.042.97-.042 2.841s.008 2.106.042 2.841c.033.734.15 1.234.32 1.673a3.377 3.377 0 0 0 .795 1.22 3.376 3.376 0 0 0 1.22.795c.439.17.94.287 1.673.32.735.034.97.042 2.841.042 1.872 0 2.106-.008 2.841-.042.733-.033 1.234-.15 1.673-.32a3.523 3.523 0 0 0 2.015-2.015c.17-.439.287-.94.32-1.673.034-.735.042-.97.042-2.841s-.008-2.106-.042-2.84c-.033-.734-.15-1.235-.32-1.674a3.376 3.376 0 0 0-.795-1.22 3.378 3.378 0 0 0-1.22-.795c-.439-.17-.94-.287-1.673-.32-.735-.034-.97-.042-2.841-.042zm0 1.241c1.84 0 2.058.007 2.784.04.672.03 1.037.143 1.28.237a2.134 2.134 0 0 1 .792.516 2.135 2.135 0 0 1 .516.792c.094.243.206.608.237 1.28.033.726.04.944.04 2.784 0 1.84-.007 2.058-.04 2.785-.03.672-.143 1.036-.237 1.279a2.282 2.282 0 0 1-1.308 1.308c-.243.094-.608.206-1.28.237-.726.033-.944.04-2.784.04-1.84 0-2.058-.007-2.784-.04-.672-.03-1.037-.143-1.28-.237a2.134 2.134 0 0 1-.792-.516 2.136 2.136 0 0 1-.516-.792c-.094-.243-.206-.608-.237-1.28-.033-.726-.04-.944-.04-2.784 0-1.84.007-2.058.04-2.784.03-.672.143-1.037.237-1.28a2.136 2.136 0 0 1 .516-.792 2.132 2.132 0 0 1 .792-.516c.243-.094.608-.206 1.28-.237.726-.033.944-.04 2.784-.04z"/>
  </g>
</svg>