<svg xmlns="http://www.w3.org/2000/svg" fill="none" viewBox="0 0 48 48">
  <g clip-path="url(#a)">
    <path fill="url(#b)" d="M44.22 20.15C44.02 8.9 35.22.27 23.97.28A19.98 19.98 0 0 0 3.78 20.3c-.03 3.29.42 6.4 1.77 9.16A20.6 20.6 0 0 0 14 38.41c.44.25.87.5 1.29.79a18.3 18.3 0 0 1 5.34 4.95l1.9 2.8a1.77 1.77 0 0 0 2.92 0l1.99-2.92a18.8 18.8 0 0 1 6.47-5.86 19.81 19.81 0 0 0 10.3-18.02Z"/>
    <path fill="url(#c)" d="M24 35.02a14.51 14.51 0 1 0 0-29.03 14.51 14.51 0 0 0 0 29.03Z"/>
    <path fill="url(#d)" d="m42.62 11.87-4.66 4.66-5.84 5.84-9.75-9.74 5.98-5.98 4.6-4.6a20.3 20.3 0 0 1 7.96 6.82 20.4 20.4 0 0 1 1.71 3Z"/>
    <path fill="url(#e)" d="m37.96 16.53-5.84 5.84-9.75-9.74 5.98-5.98a14.55 14.55 0 0 1 9.61 9.88Z"/>
    <path fill="url(#f)" d="m15.73 19.27-5.58 5.58-4.6 4.6A20.42 20.42 0 0 1 3.5 20.3c.03-3.79 1.1-7.33 2.9-10.35l9.33 9.33Z"/>
    <path fill="url(#g)" d="m15.73 19.27-5.58 5.58a14.52 14.52 0 0 1 .69-10.48l4.9 4.9Z"/>
    <path fill="url(#h)" d="m32.96 2.04-4.61 4.61-12.62 12.62-9.32-9.33A20.48 20.48 0 0 1 23.98 0c3.22 0 6.27.73 8.98 2.04Z"/>
    <path fill="url(#i)" d="M28.35 6.65 15.73 19.27l-4.9-4.9a14.53 14.53 0 0 1 17.52-7.72Z"/>
    <path fill="url(#j)" d="m25.46 47.23 1.99-2.92a18.8 18.8 0 0 1 6.47-5.86 20.5 20.5 0 0 0 8.7-26.58L15.3 39.2a19.28 19.28 0 0 1 5.34 5.24l1.9 2.79a1.77 1.77 0 0 0 2.92 0Z"/>
    <path fill="url(#k)" d="M24 35.02a14.51 14.51 0 0 0 13.96-18.5L20.03 34.48c1.26.36 2.6.55 3.97.55Z"/>
    <path fill="url(#l)" d="M24 31.6A11.1 11.1 0 1 0 24 9.4a11.1 11.1 0 0 0 0 22.19Z"/>
  </g>
  <defs>
    <linearGradient id="b" x1="19.19" x2="35.35" y1="15.82" y2="31.98" gradientUnits="userSpaceOnUse">
      <stop stop-color="#FFD833"/>
      <stop offset="1" stop-color="#F2B631"/>
    </linearGradient>
    <linearGradient id="c" x1="29.42" x2="17.57" y1="25.92" y2="14.08" gradientUnits="userSpaceOnUse">
      <stop stop-color="#FFD833"/>
      <stop offset="1" stop-color="#F2B631"/>
    </linearGradient>
    <linearGradient id="d" x1="30.91" x2="38" y1="9.77" y2="16.86" gradientUnits="userSpaceOnUse">
      <stop stop-color="#4166BF"/>
      <stop offset="1" stop-color="#4256AC"/>
    </linearGradient>
    <linearGradient id="e" x1="33.72" x2="24.97" y1="16.84" y2="8.09" gradientUnits="userSpaceOnUse">
      <stop stop-color="#4166BF"/>
      <stop offset="1" stop-color="#4256AC"/>
    </linearGradient>
    <linearGradient id="f" x1="3.3" x2="13.56" y1="17.02" y2="27.28" gradientUnits="userSpaceOnUse">
      <stop stop-color="#FF637B"/>
      <stop offset="1" stop-color="#F90217"/>
    </linearGradient>
    <linearGradient id="g" x1="13.42" x2="7.11" y1="22.54" y2="16.23" gradientUnits="userSpaceOnUse">
      <stop stop-color="#FF637B"/>
      <stop offset="1" stop-color="#F90217"/>
    </linearGradient>
    <linearGradient id="h" x1="13.63" x2="26.44" y1="-.06" y2="12.75" gradientUnits="userSpaceOnUse">
      <stop stop-color="#7FAEF4"/>
      <stop offset="1" stop-color="#4C8DF1"/>
    </linearGradient>
    <linearGradient id="i" x1="22.13" x2="17.17" y1="13.05" y2="8.09" gradientUnits="userSpaceOnUse">
      <stop stop-color="#7FAEF4"/>
      <stop offset="1" stop-color="#4C8DF1"/>
    </linearGradient>
    <linearGradient id="j" x1="29.47" x2="38.77" y1="26.46" y2="35.77" gradientUnits="userSpaceOnUse">
      <stop stop-color="#28A265"/>
      <stop offset="1" stop-color="#28895E"/>
    </linearGradient>
    <linearGradient id="k" x1="35.78" x2="27.99" y1="32.29" y2="24.49" gradientUnits="userSpaceOnUse">
      <stop stop-color="#28A265"/>
      <stop offset="1" stop-color="#28895E"/>
    </linearGradient>
    <linearGradient id="l" x1="22.16" x2="30.29" y1="18.66" y2="26.8" gradientUnits="userSpaceOnUse">
      <stop stop-color="#EBEFF0"/>
      <stop offset="1" stop-color="#CBD0E4"/>
    </linearGradient>
    <clipPath id="a">
      <path fill="#fff" d="M0 0h48v48H0z"/>
    </clipPath>
  </defs>
</svg>